<svg viewBox="0 0 240 240" xmlns="http://www.w3.org/2000/svg" fill="none" stroke="currentColor" stroke-width="1.25" stroke-linecap="round" stroke-linejoin="round">
<path stroke-width="0.9" d="M35.9 153.3C37.2 153.6 41.1 154.5 43.8 155.1C46.4 155.7 49.1 156.3 51.8 156.8C54.6 157.4 57.4 157.9 60.2 158.3C63 158.8 67.3 159.3 68.7 159.5M99.2 162C100.5 162.1 104.6 162.3 107.3 162.5C110.1 162.6 112.9 162.8 115.6 162.9C118.4 163 121.2 163.1 124.1 163.2C126.9 163.2 129.8 163.2 132.6 163.1C135.5 163.1 138.5 162.9 141.4 162.6C144.2 162.4 146.9 162.1 149.7 161.7C152.5 161.3 155.3 161 158.1 160.4C160.9 159.9 163.7 159.4 166.4 158.6C169.1 157.9 171.9 157.1 174.5 156.1C177.1 155.1 179.6 153.9 182 152.7C184.3 151.4 186.4 150.1 188.5 148.6C190.5 147.2 192.4 145.7 194.2 144.1C195.9 142.6 197.6 141 199.1 139.2C200.6 137.5 201.9 135.8 203.1 133.9C204.2 132.1 205.2 130.1 205.9 128.1C206.6 126.2 207 124.2 207.3 122.3C207.6 120.3 207.7 117.4 207.7 116.4M44.6 114.3C44.7 115.3 44.8 118.2 45.1 120.1C45.4 122 45.9 123.8 46.5 125.6C47 127.4 47.6 129.1 48.4 131C49.2 132.8 50 134.8 51.2 136.6C52.3 138.4 53.8 140.2 55.2 141.8C56.6 143.5 58.2 144.9 59.7 146.5C61.2 148 62.6 149.6 64.2 151.1C65.8 152.7 67.5 154.2 69.2 155.8C70.9 157.3 72.7 158.7 74.5 160.2C76.3 161.7 78.1 163.1 80 164.5C81.9 166 83.7 167.5 85.8 168.9C87.9 170.3 90.1 171.8 92.5 173C94.9 174.3 98.9 175.9 100.2 176.5M196.1 108.7C195.8 107.9 195.1 105.6 194.4 104.1C193.7 102.6 192.9 101 191.9 99.6C190.9 98.1 189.9 96.7 188.7 95.4C187.5 94 186.3 92.7 184.9 91.5C183.6 90.2 182.1 89.1 180.6 88C179 86.9 177.4 86 175.7 85.1C173.9 84.2 172.1 83.4 170.1 82.7C168.2 81.9 166.2 81.2 164.1 80.6C162.1 80 160 79.4 157.8 78.9C155.7 78.3 153.6 77.9 151.4 77.4C149.3 77 147.1 76.6 144.9 76.2C142.7 75.9 140.5 75.6 138.4 75.4C136.2 75.1 134 74.9 131.8 74.8C129.6 74.7 127.4 74.6 125.2 74.6C123 74.6 120.8 74.6 118.6 74.7C116.4 74.8 114.2 74.9 112 75.1C109.8 75.3 107.6 75.5 105.5 75.8C103.4 76.2 101.3 76.5 99.2 77C97.1 77.5 95 78 93 78.6C90.9 79.2 88.9 79.8 86.9 80.5C84.9 81.2 83 82 81.1 82.8C79.2 83.7 77.4 84.6 75.6 85.5C73.9 86.5 72.3 87.5 70.8 88.5C69.3 89.6 67.9 90.8 66.6 92.1C65.4 93.3 64.2 94.7 63.1 96.1C62 97.4 60.9 98.9 60 100.4C59.1 101.9 58.3 103.4 57.6 105C56.9 106.5 56.1 108.8 55.8 109.6"/>
<path stroke-width="1.35" d="M35.9 151.1C37.2 151.4 41.1 152.3 43.8 152.9C46.4 153.5 49.1 154.1 51.8 154.6C54.6 155.2 57.4 155.7 60.2 156.1C63 156.6 67.3 157.1 68.7 157.3M95.5 159.6C96.9 159.7 100.9 159.9 103.7 160.1C106.4 160.2 109.2 160.4 112 160.5C114.8 160.7 117.6 160.8 120.4 160.9C123.2 160.9 126 161 128.9 161C131.8 161 134.7 160.9 137.6 160.7C140.5 160.5 143.3 160.2 146.1 159.9C149 159.6 151.7 159.3 154.5 158.8C157.3 158.4 160.2 157.9 162.9 157.3C165.7 156.7 168.5 156 171.2 155.1C173.8 154.2 176.5 153.2 179 152C181.5 150.9 183.7 149.5 185.9 148.2C188.1 146.8 190.1 145.4 191.9 143.9C193.8 142.3 195.6 140.8 197.2 139.1C198.8 137.5 200.3 135.8 201.6 134C202.9 132.2 204.1 130.3 204.9 128.3C205.8 126.4 206.4 124.4 206.9 122.5C207.4 120.5 207.6 118.6 207.7 116.6C207.8 114.7 207.7 112.7 207.5 110.8C207.2 108.8 206.8 106.9 206.2 105C205.6 103.1 204.8 101.2 203.9 99.4C202.9 97.6 201.8 95.9 200.6 94.2C199.4 92.5 198.1 90.9 196.6 89.3C195.1 87.7 193.5 86.2 191.8 84.8C190.1 83.4 188.2 82 186.2 80.7C184.2 79.5 182 78.3 179.8 77.2C177.6 76.2 175.3 75.3 173 74.5C170.7 73.7 168.3 73 166 72.3C163.7 71.7 161.4 71.1 159 70.5C156.7 70 154.3 69.5 151.9 69.1C149.6 68.6 147.2 68.2 144.8 67.9C142.4 67.5 139.9 67.2 137.5 67C135.1 66.8 132.6 66.6 130.2 66.5C127.7 66.4 125.3 66.4 122.8 66.4C120.4 66.4 117.9 66.5 115.5 66.6C113.1 66.8 110.6 67 108.2 67.2C105.7 67.5 103.2 67.8 100.8 68.2C98.4 68.7 96 69.2 93.6 69.7C91.2 70.3 88.9 70.9 86.5 71.7C84.2 72.4 82 73.1 79.7 74C77.5 74.9 75.3 75.8 73.1 76.8C71 77.8 68.8 78.9 66.8 80.2C64.8 81.4 62.8 82.8 61.1 84.2C59.3 85.6 57.7 87.2 56.2 88.7C54.8 90.3 53.5 91.9 52.2 93.6C51 95.3 49.9 97 48.9 98.7C48 100.5 47 102.2 46.4 104.1C45.7 106 45 108.1 44.8 110.1C44.5 112.1 44.6 114.1 44.8 116C45 118 45.5 119.9 46 121.8C46.5 123.7 47.1 125.5 47.8 127.3C48.5 129.2 49.2 131.2 50.3 133C51.4 134.9 52.8 136.8 54.2 138.6C55.6 140.3 57.3 141.8 58.8 143.4C60.3 145 61.7 146.6 63.3 148.1C65 149.7 66.7 151.4 68.4 152.9C70.2 154.5 72 156 73.9 157.5C75.7 159 77.5 160.5 79.5 161.9C81.4 163.4 83.3 165 85.5 166.4C87.6 167.9 89.9 169.4 92.3 170.7C94.8 172 98.9 173.6 100.2 174.2M40.2 143.1C41.7 143.4 46.3 144.5 49.3 145.1C52.4 145.8 57 146.7 58.5 147M82.5 150.1C83.8 150.2 87.8 150.5 90.4 150.7C93.1 150.9 95.7 151 98.4 151.2C101.1 151.3 103.8 151.5 106.5 151.6C109.2 151.8 111.9 151.9 114.5 152C117.2 152.2 119.9 152.3 122.5 152.3C125.1 152.4 127.7 152.4 130.3 152.4C132.9 152.3 135.4 152.2 138 152.1C140.5 151.9 143.2 151.6 145.7 151.3C148.3 151 150.8 150.6 153.3 150.2C155.8 149.8 158.3 149.4 160.6 148.8C163 148.3 165.3 147.6 167.5 146.9C169.6 146.1 171.6 145.3 173.6 144.4C175.5 143.4 177.4 142.3 179.2 141.1C181 140 182.7 138.7 184.3 137.4C185.8 136.1 187.3 134.8 188.7 133.4C190 132 191.2 130.5 192.3 129.1C193.3 127.6 194.1 126.1 194.8 124.6C195.5 123 196 121.4 196.3 119.8C196.7 118.2 196.9 116.5 197 114.9C197 113.2 197 111.6 196.7 109.9C196.5 108.3 196.2 106.7 195.7 105.2C195.2 103.6 194.5 102.1 193.7 100.6C192.9 99.1 191.9 97.6 190.9 96.2C189.9 94.7 188.7 93.3 187.5 92C186.2 90.7 184.9 89.4 183.5 88.2C182 87.1 180.5 85.9 178.9 84.9C177.2 83.9 175.6 83 173.7 82.2C171.9 81.4 169.9 80.6 167.9 79.9C165.9 79.2 163.8 78.6 161.7 78C159.6 77.4 157.5 76.9 155.3 76.4C153.2 75.9 151 75.4 148.8 75C146.6 74.6 144.4 74.2 142.2 73.9C140 73.6 137.8 73.4 135.6 73.2C133.4 73 131.2 72.9 128.9 72.8C126.7 72.7 124.5 72.7 122.3 72.7C120 72.7 117.8 72.8 115.6 72.9C113.4 73.1 111.2 73.2 109 73.5C106.8 73.7 104.6 74.1 102.5 74.4C100.4 74.8 98.3 75.3 96.2 75.8C94.1 76.3 92 76.9 90 77.6C87.9 78.2 85.9 78.9 84 79.7C82 80.5 80.1 81.3 78.3 82.2C76.4 83.1 74.6 84.1 73 85.1C71.4 86.1 69.9 87.2 68.5 88.4C67.1 89.6 65.8 90.9 64.6 92.2C63.4 93.5 62.3 95 61.3 96.4C60.3 97.9 59.4 99.4 58.6 100.9C57.8 102.4 57 104.1 56.5 105.6C55.9 107.1 55.5 108.6 55.4 110.2C55.2 111.7 55.3 113.3 55.5 114.9C55.8 116.5 56.2 118.1 56.7 119.8C57.2 121.4 57.8 123.2 58.5 124.8C59.1 126.5 59.7 128.1 60.6 129.6C61.5 131.2 62.6 132.5 63.9 134C65.1 135.4 66.7 136.9 68.1 138.4C69.6 139.9 71.1 141.5 72.6 143C74.2 144.5 75.7 145.9 77.4 147.3C79 148.7 80.7 150.1 82.5 151.6C84.3 153 86.1 154.4 88 155.8C89.8 157.2 91.6 158.6 93.5 159.9C95.4 161.2 97.3 162.4 99.3 163.4C101.3 164.5 104.6 165.8 105.6 166.3"/>
<path stroke-width="0.9" d="M46.3 152.8L49.8 145.9M100.2 159.2L101.2 151.9M111.1 159.8L111.9 152.5M122.2 160.3L122.5 152.9M133.5 160.3L133 152.9M144.8 159.4L143.2 152.2M155.8 158L153.4 150.8M166.7 155.7L163.1 148.8M177.1 152.1L171.9 145.9M186.2 147.2L179.6 141.7M193.8 141.4L186.2 136.7M200 134.8L191.7 131.1M204.4 127.6L195.4 125.1M206.6 119.9L197.4 118.6M206.9 112.3L197.7 112M205.4 104.7L196.5 105.5M202 97.6L193.8 99.4M197.3 91L189.7 93.6M191.2 85L184.5 88.4M183.7 79.8L178.3 83.9M175 75.8L171 80.5M165.9 72.8L162.8 77.8M156.7 70.5L154.3 75.6M147.3 68.7L145.5 74M137.8 67.5L136.7 72.8M128.2 66.9L127.8 72.3M118.6 67L118.9 72.3M108.9 67.6L110.1 72.9M99.3 69L101.4 74.2M90 71.1L93 76.2M80.9 74.1L84.8 78.8M72.3 77.8L77.2 82.2M64.3 82.4L70.4 86.2M57.6 88.2L64.9 91M52.4 94.5L60.4 96.7M48.3 101.4L56.9 102.8M45.7 108.8L54.8 109M45.6 116.6L54.8 115.3M47.5 124L56.6 122M50.3 131.4L59.2 128.6M55.2 138.6L63.4 134.5M61.2 144.9L69.2 140.5M67.6 151.2L75.3 146.4M74.7 157.2L82 152.1M82.2 163.1L89.3 157.7M90.5 168.8L96.8 162.9"/>
<path stroke-width="1.0" d="M38.9 148.2A4.2 2.9 0 0 0 47.2 148.2A4.2 2.9 0 0 0 38.9 148.2M48.9 150.4A4.2 2.9 0 0 0 57.3 150.4A4.2 2.9 0 0 0 48.9 150.4M59.2 152.2A4.2 2.9 0 0 0 65.8 154.6M61 149.8A4.2 2.9 0 0 0 59.2 152.2M91.1 155.3A4.2 2.9 0 0 0 99.6 155.3A4.2 2.9 0 0 0 91.1 155.3M101.9 155.9A4.2 2.9 0 0 0 110.3 155.9A4.2 2.9 0 0 0 101.9 155.9M112.7 156.4A4.2 2.9 0 0 0 121.2 156.4A4.2 2.9 0 0 0 112.7 156.4M123.6 156.7A4.2 2.9 0 0 0 132 156.7A4.2 2.9 0 0 0 123.6 156.7M134.4 156.3A4.2 2.9 0 0 0 142.8 156.3A4.2 2.9 0 0 0 134.4 156.3M145.1 155.2A4.2 2.9 0 0 0 153.5 155.2A4.2 2.9 0 0 0 145.1 155.2M155.6 153.4A4.2 2.9 0 0 0 164 153.4A4.2 2.9 0 0 0 155.6 153.4M165.7 150.8A4.2 2.9 0 0 0 174 150.8A4.2 2.9 0 0 0 165.7 150.8M174.7 146.8A4.2 2.9 0 0 0 183 146.8A4.2 2.9 0 0 0 174.7 146.8M182.5 141.8A4.1 2.9 0 0 0 190.7 141.8A4.1 2.9 0 0 0 182.5 141.8M189 136.1A4.1 2.9 0 0 0 197.2 136.1A4.1 2.9 0 0 0 189 136.1M194.1 129.7A4 2.8 0 0 0 202.2 129.7A4 2.8 0 0 0 194.1 129.7M197.2 122.8A4 2.8 0 0 0 205.2 122.8A4 2.8 0 0 0 197.2 122.8M198.4 115.7A3.9 2.8 0 0 0 206.3 115.7A3.9 2.8 0 0 0 198.4 115.7M197.9 108.6A3.9 2.7 0 0 0 205.7 108.6A3.9 2.7 0 0 0 197.9 108.6M195.8 101.7A3.9 2.7 0 0 0 203.5 101.7A3.9 2.7 0 0 0 195.8 101.7M192.1 95.3A3.8 2.7 0 0 0 199.7 95.3A3.8 2.7 0 0 0 192.1 95.3M187 89.4A3.8 2.6 0 0 0 194.6 89.4A3.8 2.6 0 0 0 187 89.4M180.8 84.1A3.7 2.6 0 0 0 188.3 84.1A3.7 2.6 0 0 0 180.8 84.1M173.4 79.9A3.7 2.6 0 0 0 180.8 79.9A3.7 2.6 0 0 0 173.4 79.9M165.1 76.6A3.7 2.6 0 0 0 172.4 76.6A3.7 2.6 0 0 0 165.1 76.6M156.3 74.1A3.6 2.5 0 0 0 163.6 74.1A3.6 2.5 0 0 0 156.3 74.1M147.3 72.1A3.6 2.5 0 0 0 154.6 72.1A3.6 2.5 0 0 0 147.3 72.1M138.3 70.7A3.6 2.5 0 0 0 145.5 70.7A3.6 2.5 0 0 0 138.3 70.7M129.1 69.8A3.6 2.5 0 0 0 136.3 69.8A3.6 2.5 0 0 0 129.1 69.8M119.8 69.5A3.6 2.5 0 0 0 127 69.5A3.6 2.5 0 0 0 119.8 69.5M110.5 69.8A3.6 2.5 0 0 0 117.7 69.8A3.6 2.5 0 0 0 110.5 69.8M101.3 70.8A3.6 2.5 0 0 0 108.5 70.8A3.6 2.5 0 0 0 101.3 70.8M92.2 72.5A3.6 2.5 0 0 0 99.5 72.5A3.6 2.5 0 0 0 92.2 72.5M83.5 75A3.6 2.6 0 0 0 90.8 75A3.6 2.6 0 0 0 83.5 75M75.1 78.1A3.7 2.6 0 0 0 82.4 78.1A3.7 2.6 0 0 0 75.1 78.1M67.2 82A3.7 2.6 0 0 0 74.6 82A3.7 2.6 0 0 0 67.2 82M60.4 86.8A3.7 2.6 0 0 0 67.8 86.8A3.7 2.6 0 0 0 60.4 86.8M54.9 92.5A3.8 2.6 0 0 0 62.4 92.5A3.8 2.6 0 0 0 54.9 92.5M50.5 98.8A3.8 2.7 0 0 0 58.2 98.8A3.8 2.7 0 0 0 50.5 98.8M47.3 105.4A3.9 2.7 0 0 0 55.1 105.4A3.9 2.7 0 0 0 47.3 105.4M46 112.4A3.9 2.7 0 0 0 53.9 112.4A3.9 2.7 0 0 0 46 112.4M47 119.5A4 2.8 0 0 0 54.9 119.5A4 2.8 0 0 0 47 119.5M49.3 126.5A4 2.8 0 0 0 57.3 126.5A4 2.8 0 0 0 49.3 126.5M52.7 133.4A4.1 2.8 0 0 0 60.8 133.4A4.1 2.8 0 0 0 52.7 133.4M58.1 139.6A4.1 2.9 0 0 0 66.3 139.6A4.1 2.9 0 0 0 58.1 139.6M64.1 145.8A4.1 2.9 0 0 0 72.4 145.8A4.1 2.9 0 0 0 64.1 145.8M70.7 151.7A4.2 2.9 0 0 0 79 151.7A4.2 2.9 0 0 0 70.7 151.7M77.8 157.5A4.2 3 0 0 0 86.2 157.5A4.2 3 0 0 0 77.8 157.5M85.3 163.2A4.3 3 0 0 0 93.9 163.2A4.3 3 0 0 0 85.3 163.2M93.9 168.2A4.3 3 0 0 0 102.4 168.2A4.3 3 0 0 0 93.9 168.2"/>
<path d="M105.8 166.8 L116.4 170.4 L111.8 178 L101.2 174.3Z"/><path stroke-width="0.9" d="M101.2 174.3 L101.2 176.5 L111.8 180.2 L116.4 172.6 L116.4 170.4"/><path stroke-width="0.9" d="M113.8 169.5 L109.3 177.1"/><path stroke-width="0.9" d="M108.8 167.1A1.5 1 0 0 0 111.7 167.1A1.5 1 0 0 0 108.8 167.1"/><path stroke-width="0.9" d="M111.6 168.1A1.5 1 0 0 0 114.6 168.1A1.5 1 0 0 0 111.6 168.1"/>
<path stroke-width="1.0" d="M39 145.4 L32.2 143.8 L31.1 144.2 L29.9 146.4 L30.3 147.1 L37.1 148.7"/><path d="M35.9 151.1L40.2 143.1"/><path stroke-width="0.9" d="M35.9 151.1L35.9 153.3"/>
</svg>